<svg width="160" height="80" viewBox="0 0 160 80" fill="none" xmlns="http://www.w3.org/2000/svg">
<path d="M44.1999 73.7H47.4999L48.5999 71.1H44.1999V69.3H49.2999L50.3999 66.6H40.8999V78.3H50.3999V75.5H44.0999V73.6L44.1999 73.7Z" fill="white"/>
<path d="M85.2 67.6C84.3 66.9 83.2 66.5 81.7 66.5H76.7V78.2H80V74.8H81.6C83.1 74.8 84.3 74.4 85.3 73.7C86.2 73 86.7 71.9 86.7 70.6C86.7 69.3 86.3 68.3 85.4 67.5L85.2 67.6ZM82.8 72C82.5 72.3 82 72.4 81.4 72.4H79.9V69.3H81.4C82 69.3 82.5 69.4 82.8 69.7C83.1 70 83.3 70.3 83.3 70.8C83.3 71.3 83.1 71.7 82.8 72Z" fill="white"/>
<path d="M90.9001 66.5H87.6001V78.2H94.8001L96.0001 75.4H90.8001V66.5H90.9001Z" fill="white"/>
<path d="M101.6 66.5L97.4001 76.4L96.6001 78.3H100L100.8 76.2H105.3L106.2 78.3H109.7L104.7 66.5H101.6ZM101.9 73.7L103.2 70.3L104.5 73.7H101.9Z" fill="white"/>
<path d="M116.4 66.5L114 70.8L111.6 66.5H107.9L112.4 73.9V78.3H115.7V73.8L120.2 66.5H116.6H116.4Z" fill="white"/>
<path d="M60.2 66.5L57.5 74L54.7999 66.5H51.2L56 78.3H59L63.7999 66.5H60.2Z" fill="white"/>
<path d="M69.2001 66.3C65.8001 66.3 63.1001 69 63.1001 72.4C63.1001 75.8 65.8001 78.5 69.2001 78.5C72.6001 78.5 75.3001 75.8 75.3001 72.4C75.3001 69 72.5001 66.3 69.2001 66.3ZM69.2001 75.6C67.4001 75.6 66.0001 74.2 66.0001 72.4C66.0001 70.6 67.4001 69.2 69.2001 69.2C71.0001 69.2 72.4001 70.6 72.4001 72.4C72.4001 74.2 71.0001 75.6 69.2001 75.6Z" fill="white"/>
<path d="M60 53.5999H91.7L96.3 42.7H60.1L60 53.5999Z" fill="white"/>
<path d="M60 40.6L99.1 35.2L103.9 23.5L60 29.6V40.5V40.6Z" fill="white"/>
<path d="M60 27.5L107.5 15.4L112.9 2.40002L60.1 16.2V27.5H60Z" fill="white"/>
</svg>
