<svg width="160" height="80" viewBox="0 0 160 80" fill="none" xmlns="http://www.w3.org/2000/svg">
<path d="M59.9998 23.5H64.1998L68.7998 31.7H68.8998L73.4998 23.5H77.6998V39.6H74.8998V27.1H74.6998L69.9998 35.2H67.3998L62.6998 27.1H62.5998V39.6H59.7998V23.5H59.9998Z" fill="white"/>
<path d="M77.9002 39.7H74.9002V27.2L70.2002 35.3H67.4002L62.7002 27.2V39.7H59.7002V23.4H64.1002L68.6002 31.6L73.2002 23.4H77.6002V39.7H77.9002ZM75.1002 39.5H77.7002V23.7H73.6002L69.0002 31.9H68.7002L64.2002 23.7H60.1002V39.5H62.7002V27H63.1002L67.8002 35.1H70.3002L75.0002 27H75.3002V39.5H75.1002Z" fill="white"/>
<path d="M83.5001 39.7C82.4001 39.7 81.6001 39.4 81.0001 38.9C80.4001 38.2 80.1001 37.4 80.2001 36.5C80.2001 35.4 80.6001 34.4 81.3001 33.9C82.0001 33.3 83.2001 32.8999 84.7001 32.7999L87.5001 32.5999V32.2C87.5001 31.9 87.5001 31.5 87.4001 31.1C87.4001 30.8 87.2001 30.6 87.0001 30.4C86.8001 30.2 86.5001 30.1 86.2001 30C85.8001 30 85.3001 29.9 84.9001 29.9C84.5001 29.9 83.8001 29.9 83.2001 30C82.6001 30 81.9001 30.1999 81.2001 30.2999L81.0001 28.1C82.4001 27.8 83.9001 27.7 85.4001 27.7C86.9001 27.7 88.4001 28 89.3001 28.6C90.1001 29.2 90.6001 30.2 90.6001 31.6V39.5H88.1001L87.8001 38H87.7001C86.6001 39 85.1001 39.5999 83.7001 39.5999L83.5001 39.7ZM84.7001 37.5999C85.2001 37.5999 85.6001 37.4999 86.1001 37.2999C86.6001 37.0999 87.0001 36.8999 87.4001 36.5999V34.2L85.5001 34.4C84.6001 34.4 84.0001 34.6 83.7001 34.9C83.4001 35.2 83.1001 35.7 83.2001 36.2C83.2001 37.2 83.8001 37.6999 84.7001 37.5999Z" fill="white"/>
<path d="M83.5 39.7999C82.4 39.7999 81.5 39.5 80.9 38.9C80.3 38.3 80 37.5 80 36.4C80 35.3 80.4 34.3 81.1 33.7C81.8 33.1 83 32.6999 84.6 32.5999L87.3 32.4V32.0999C87.3 31.7999 87.3 31.4 87.2 31.1C87.2 30.9 87 30.6 86.8 30.5C86.6 30.3 86.3 30.2 86 30.2C85 30.1 84 30.1 83 30.2C82.4 30.2 81.7 30.4 81.1 30.5H81L80.8 28.2H80.9C82.4 27.9 83.8 27.8 85.3 27.7C87.1 27.7 88.4 28 89.3 28.7C90.1 29.4 90.6 30.3999 90.6 31.7999V39.9H87.9L87.6 38.4C86.4 39.4 85 39.9 83.5 39.9V39.7999ZM84.8 29.7999C85.3 29.7999 85.7 29.8 86.1 29.9C86.4 29.9 86.7 30.0999 86.9 30.2999C87.1 30.4999 87.2 30.8 87.3 31C87.3 31.3 87.4 31.6999 87.4 32.0999V32.5999L84.5 32.7999C83 32.8999 81.9 33.2999 81.2 33.7999C80.5 34.3999 80.2 35.2 80.2 36.4C80.2 37.3 80.4 38.1 81 38.7C81.5 39.3 82.4 39.5 83.4 39.5C84.9 39.5 86.3 38.9 87.4 38H87.7L88 39.5H90.3V31.6C90.3 30.3 89.9 29.3 89.1 28.7C88.3 28.1 87 27.7999 85.3 27.7999C83.6 27.7999 82.4 27.9 81 28.2L81.2 30.1C81.8 30 82.4 29.8999 83.1 29.7999C83.7 29.7999 84.3 29.7999 84.9 29.7999H84.8ZM84.7 37.7C83.7 37.7 83.1 37.1999 83.1 36.0999C83.1 35.5999 83.3 35.0999 83.7 34.7999C84 34.4999 84.7 34.2999 85.6 34.2999L87.6 34.0999V36.7C87.2 37 86.7 37.3 86.3 37.4C85.8 37.6 85.4 37.6 84.9 37.7H84.7ZM87.3 34.2999L85.6 34.5C84.8 34.5 84.2 34.7 83.8 35C83.4 35.3 83.3 35.7 83.3 36.2C83.3 37.1 83.8 37.5999 84.7 37.5999C85.6 37.5999 85.6 37.4999 86 37.2999C86.5 37.0999 86.9 36.8999 87.3 36.5999V34.2999Z" fill="white"/>
<path d="M93.2998 27.9H95.7998L95.9998 29.2999H96.0998C96.9998 28.7999 97.9998 28.4 98.9998 28.1C99.6998 27.9 100.4 27.8 101.2 27.7C102.1 27.7 102.9 27.9 103.6 28.5C104.2 29.1 104.4 29.9 104.4 30.9V39.5999H101.4V31.9C101.4 31.4 101.4 30.9 101 30.5C100.7 30.2 100.3 30 99.7998 30.1C99.1998 30.1 98.6998 30.2 98.1998 30.4C97.5998 30.6 96.8998 30.8 96.2998 31.1V39.5999H93.2998V27.9Z" fill="white"/>
<path d="M104.5 39.7H101.3V31.9C101.3 31.4 101.3 30.9 101 30.5C100.7 30.2 100.3 30.1 99.9002 30.1C99.4002 30.1 98.8002 30.2 98.3002 30.4C97.7002 30.6 97.1002 30.8 96.5002 31.1V39.7H93.2002V27.7H95.9002L96.1002 29.1C97.0002 28.6 98.0002 28.2 99.0002 27.9C99.7002 27.7 100.5 27.6 101.2 27.5C102.1 27.5 103 27.7 103.6 28.4C104.2 29 104.5 29.8 104.5 30.9V39.7ZM101.5 39.5H104.3V30.9C104.3 29.9 104 29.1 103.5 28.6C102.9 28 102 27.8 101.2 27.8C100.5 27.8 99.7002 27.9 99.0002 28.1C98.0002 28.4 97.1002 28.8 96.2002 29.3H95.9002L95.7002 27.9H93.4002V39.4H96.2002V30.9C96.8002 30.6 97.5002 30.4 98.1002 30.2C98.6002 30 99.2002 29.9 99.7002 29.9C100.2 29.9 100.6 30 101 30.4C101.3 30.9 101.5 31.4 101.4 31.9L101.5 39.5Z" fill="white"/>
<path d="M112.6 39.8C108.7 39.8 106.7 37.8 106.7 33.8C106.7 29.8 108.7 27.8 112.6 27.8C116.5 27.8 113.8 27.8 114.3 27.9C114.8 27.9 115.3 28.0001 115.9 28.2001V30.6C115.4 30.5 114.9 30.5 114.4 30.4C113.9 30.4 113.4 30.4 112.9 30.4C111.8 30.4 111 30.7001 110.5 31.2001C110 31.8001 109.8 32.7001 109.8 33.9001C109.8 35.1001 110 36.1 110.5 36.6C111 37.2 111.8 37.4001 112.9 37.4001C114 37.4001 114 37.4001 114.5 37.4001C115 37.4001 115.5 37.3001 115.9 37.2001V39.6C115.4 39.7 114.9 39.8001 114.4 39.9001C113.8 39.9001 113.2 39.9 112.6 39.8Z" fill="white"/>
<path d="M112.6 39.9C108.6 39.9 106.6 37.8 106.6 33.7C106.6 29.6 108.6 27.5 112.6 27.5C116.6 27.5 113.7 27.5 114.3 27.6C114.8 27.6 115.4 27.7 115.9 27.9V30.5H115.8C115.3 30.4 114.7 30.3 114.3 30.3C113.8 30.3 113.3 30.3 112.8 30.3C111.7 30.3 110.9 30.6 110.5 31.1C110 31.6 109.8 32.5 109.8 33.7C109.8 34.9 110 35.9 110.5 36.4C111 37 111.7 37.2 112.8 37.2C113.9 37.2 113.9 37.2 114.4 37.2C114.9 37.2 115.4 37.1 115.8 37H115.9V39.5C115.4 39.7 114.9 39.7 114.4 39.8C113.8 39.8 113.2 39.8 112.6 39.8V39.9ZM112.6 27.8C108.7 27.8 106.8 29.7 106.8 33.7C106.8 37.7 108.7 39.6 112.6 39.6C116.5 39.6 113.8 39.6 114.4 39.5C114.9 39.5 115.3 39.4 115.8 39.3V37.1C115.3 37.2 114.9 37.2 114.5 37.3C114 37.3 113.5 37.3 112.9 37.3C111.7 37.3 110.9 37 110.4 36.4C109.9 35.8 109.7 34.9 109.7 33.6C109.7 32.3 109.9 31.4 110.5 30.8C111 30.2 111.8 29.9 113 29.9C114.2 29.9 114 29.9 114.5 29.9C115 29.9 115.4 30 115.9 30.1V27.9C115.4 27.8 114.9 27.7 114.4 27.7C113.8 27.7 113.2 27.7 112.7 27.7L112.6 27.8Z" fill="white"/>
<path d="M120.8 39.7C119.7 39.7 118.9 39.4 118.3 38.9C117.7 38.3 117.5 37.5 117.5 36.5C117.5 35.5 117.8 34.4 118.6 33.9C119.3 33.3 120.5 32.8999 122 32.7999L124.8 32.5999V32.2C124.8 31.9 124.8 31.5 124.7 31.1C124.7 30.8 124.5 30.6 124.3 30.4C124.1 30.2 123.8 30.1 123.5 30C123.1 30 122.6 29.9 122.2 29.9C121.8 29.9 121.1 29.9 120.5 30C119.9 30 119.2 30.1999 118.6 30.2999L118.4 28.1C119.8 27.8 121.3 27.7 122.8 27.7C124.3 27.7 125.8 28 126.7 28.6C127.5 29.2 128 30.2 128 31.6V39.5H125.5L125.2 38H125C123.9 39 122.5 39.5999 121 39.5999L120.8 39.7ZM122.1 37.5999C122.6 37.5999 123 37.4999 123.5 37.2999C124 37.0999 124.4 36.8999 124.8 36.5999V34.2L122.9 34.4C122 34.4 121.4 34.6 121.1 34.9C120.8 35.2 120.5 35.7 120.6 36.2C120.6 37.2 121.1 37.6999 122.1 37.5999Z" fill="white"/>
<path d="M120.8 39.7999C119.7 39.7999 118.8 39.5 118.2 38.9C117.6 38.3 117.3 37.5 117.3 36.4C117.3 35.3 117.7 34.3 118.4 33.7C119.1 33.1 120.3 32.6999 121.9 32.5999L124.6 32.4V32.0999C124.6 31.7999 124.6 31.4 124.5 31.1C124.5 30.9 124.3 30.6 124.1 30.5C123.9 30.3 123.6 30.2 123.3 30.2C122.3 30.1 121.3 30.1 120.3 30.2C119.7 30.2 119 30.4 118.4 30.5H118.3L118.1 28.2H118.2C119.7 27.9 121.1 27.8 122.6 27.7C124.4 27.7 125.7 28 126.6 28.7C127.4 29.4 127.9 30.3999 127.9 31.7999V39.9H125.2L124.9 38.4C123.7 39.4 122.3 39.9 120.8 39.9V39.7999ZM122.1 29.7999C122.6 29.7999 123 29.8 123.4 29.9C123.7 29.9 124 30.0999 124.2 30.2999C124.4 30.4999 124.5 30.8 124.6 31C124.6 31.3 124.7 31.6999 124.7 32.0999V32.5999L121.8 32.7999C120.3 32.8999 119.2 33.2999 118.5 33.7999C117.8 34.3999 117.5 35.2 117.5 36.4C117.5 37.2 117.7 38.1 118.3 38.7C118.8 39.3 119.7 39.5 120.7 39.5C122.2 39.5 123.6 38.9 124.7 38H125L125.3 39.5H127.6V31.6C127.6 30.3 127.2 29.3 126.4 28.7C125.6 28.1 124.3 27.7999 122.6 27.7999C120.9 27.7999 119.7 27.9 118.3 28.2L118.5 30.1C119.1 30 119.7 29.8999 120.4 29.7999C121.1 29.7999 121.7 29.7999 122.2 29.7999H122.1ZM122.1 37.7C121.1 37.7 120.5 37.1999 120.5 36.0999C120.5 35.5999 120.7 35.0999 121.1 34.7999C121.5 34.4999 122.1 34.2999 123 34.2999L125 34.0999V36.7C124.6 37 124.1 37.3 123.7 37.4C123.2 37.6 122.8 37.6 122.3 37.7H122.1ZM124.7 34.2999L123 34.5C122.2 34.5 121.6 34.7 121.2 35C120.9 35.3 120.7 35.7 120.7 36.2C120.7 37.1 121.2 37.5999 122.1 37.5999C123 37.5999 123 37.4999 123.4 37.2999C123.9 37.0999 124.3 36.8999 124.7 36.5999V34.2999Z" fill="white"/>
<path d="M130.6 22H133.6V39.6H130.6V22Z" fill="white"/>
<path d="M133.8 39.7H130.5V22H133.8V39.7ZM130.8 39.5H133.6V22.2H130.8V39.5Z" fill="white"/>
<path d="M139.2 39.7C138.1 39.7 137.3 39.4 136.7 38.9C136.1 38.2 135.8 37.4 135.9 36.5C135.9 35.4 136.3 34.4 137 33.9C137.7 33.3 138.9 32.9999 140.4 32.7999L143.2 32.5999V32.2C143.2 31.9 143.2 31.5 143.1 31.1C143.1 30.8 142.9 30.6 142.7 30.4C142.5 30.2 142.2 30.1 141.9 30C141.5 30 141 29.9 140.6 29.9C140.2 29.9 139.5 29.9 138.9 30C138.3 30 137.6 30.1999 136.9 30.2999L136.7 28.1C138.1 27.8 139.6 27.7 141.1 27.7C142.6 27.7 144.1 28 145 28.6C145.8 29.2 146.3 30.2 146.3 31.6V39.5H143.8L143.5 38H143.3C142.2 39 140.8 39.5999 139.3 39.5999L139.2 39.7ZM140.4 37.5999C140.9 37.5999 141.3 37.4999 141.8 37.2999C142.3 37.0999 142.7 36.8999 143.1 36.5999V34.2L141.2 34.4C140.3 34.4 139.7 34.6 139.4 34.9C139 35.2 138.8 35.7 138.9 36.2C138.9 37.2 139.4 37.6999 140.4 37.5999Z" fill="white"/>
<path d="M139.2 39.8C138.1 39.8 137.2 39.5 136.6 38.9C136 38.3 135.7 37.5 135.7 36.4C135.7 35.3 136.1 34.3 136.8 33.7C137.5 33.1 138.7 32.7 140.3 32.6L143 32.4V32.1C143 31.8 143 31.4 142.9 31.1C142.9 30.9 142.7 30.6 142.5 30.5C142.3 30.3 142 30.2 141.7 30.2C140.7 30.1 139.7 30.1 138.7 30.2C138.1 30.2 137.4 30.4 136.8 30.5H136.7L136.5 28.1H136.6C138.1 27.8 139.5 27.7 141 27.6C142.8 27.6 144.1 27.9 145 28.6C145.8 29.3 146.3 30.3 146.3 31.7V39.7H143.6L143.3 38.2C142.1 39.3 140.7 39.8 139.2 39.8ZM140.5 29.8C141 29.8 141.4 29.8 141.8 29.9C142.1 29.9 142.4 30.1 142.6 30.3C142.8 30.5 142.9 30.8 143 31C143 31.3 143.1 31.7 143.1 32.1V32.6L140.2 32.8C138.7 32.9 137.6 33.3 136.9 33.8C136.2 34.4 135.8 35.2 135.8 36.4C135.8 37.3 136 38.1 136.6 38.7C137.1 39.3 138 39.5 139 39.5C140.5 39.5 141.9 38.9 143 38H143.3L143.6 39.5H145.9V31.6C145.9 30.3 145.5 29.3 144.7 28.7C143.9 28.1 142.6 27.8 140.9 27.8C139.2 27.8 138 27.9 136.6 28.2L136.8 30.1C137.4 30 138 29.9 138.7 29.8C139.4 29.8 140 29.8 140.5 29.8ZM140.4 37.7C139.4 37.7 138.8 37.2 138.8 36.1C138.8 35.6 139 35.1 139.4 34.8C139.7 34.5 140.4 34.3 141.3 34.3L143.3 34.1V36.7C142.9 37 142.4 37.3 142 37.4C141.5 37.6 141.1 37.6 140.6 37.7H140.4ZM143 34.3L141.3 34.5C140.5 34.5 139.9 34.7 139.5 35C139.1 35.3 139 35.7 139 36.2C139 37.1 139.5 37.6 140.4 37.6C141.3 37.6 141.3 37.5 141.7 37.3C142.2 37.1 142.6 36.9 143 36.6V34.3Z" fill="white"/>
<path d="M67.9 53.7C67.5 54.3 66.9 54.7 66.2 54.9C65.4 55.2 64.6 55.3 63.8 55.3C63 55.3 62.1 55.1 61.3 54.7C60.6 54.3 60 53.7 59.6 52.9C59.2 52 59 51.1 59 50.2V49.3C59 47.6 59.4 46.3 60.2 45.4C61 44.5 62.1 44 63.6 44C65.1 44 65.8 44.3 66.6 44.9C67.4 45.6 67.8 46.5 67.9 47.5H66C65.8 46.2 65 45.5 63.7 45.5C62.9 45.5 62.2 45.8 61.7 46.4C61.2 47 61 47.9 61 49.1V49.9C61 51.1 61.2 52 61.8 52.7C62.3 53.4 63.1 53.7 63.9 53.7C64.9 53.7 65.6 53.5 66 53V50.8H63.7V49.3H67.9V53.5V53.7Z" fill="white"/>
<path d="M74.9998 55.0999C74.8998 54.8999 74.7998 54.5999 74.7998 54.2999C74.1998 54.8999 73.3998 55.2 72.5998 55.2C71.8998 55.2 71.0998 55 70.5998 54.5C70.0998 54 69.7998 53.3999 69.7998 52.7999C69.7998 51.9999 70.0998 51.1999 70.7998 50.7999C71.4998 50.2999 72.3998 50.0999 73.5998 50.0999H74.7998V49.5C74.7998 49.1 74.6998 48.7 74.3998 48.5C74.0998 48.2 73.6998 48.0999 73.2998 48.0999C72.8998 48.0999 72.5998 48.2 72.2998 48.4C72.0998 48.6 71.8998 48.9 71.8998 49.2H69.9998C69.9998 48.7 70.1998 48.3 70.4998 47.9C70.7998 47.5 71.1998 47.2 71.6998 47C72.2998 46.8 72.8998 46.7 73.3998 46.7C74.1998 46.7 75.0998 46.9 75.6998 47.4C76.2998 47.9 76.5998 48.7 76.5998 49.5V53.2C76.5998 53.8 76.5998 54.4 76.8998 55C76.8998 55.1 74.9998 55.1999 74.9998 55.0999ZM72.9998 53.7999C73.3998 53.7999 73.6998 53.7 74.0998 53.5C74.3998 53.3 74.6998 53.0999 74.7998 52.7999V51.2H73.7998C73.2998 51.2 72.6998 51.2 72.1998 51.5C71.7998 51.7 71.6998 52.1 71.6998 52.5C71.6998 52.9 71.7998 53.0999 72.0998 53.2999C72.3998 53.5999 72.7998 53.6999 72.9998 53.7999Z" fill="white"/>
<path d="M80.4999 46.9001V47.8C81.0999 47.1 81.9999 46.8 82.8999 46.8C83.9999 46.8 84.7999 47.2 85.1999 48.1C85.7999 47.3 86.6999 46.8 87.7999 46.8C88.6999 46.8 89.3999 47 89.7999 47.6C90.1999 48.1 90.4999 48.9 90.4999 49.8V55.2001H88.5999V49.8C88.5999 49.4 88.4999 49.0001 88.1999 48.7001C87.8999 48.4001 87.4999 48.3 86.9999 48.3C86.5999 48.3 86.1999 48.4 85.8999 48.6C85.5999 48.8 85.3999 49.2 85.2999 49.5V55.2001H83.3999V49.7001C83.3999 48.7001 82.8999 48.2001 81.8999 48.2001C81.1999 48.2001 80.5999 48.5 80.2999 49.1V55.1H78.3999V46.9001H80.1999H80.4999Z" fill="white"/>
<path d="M92.5 44.7C92.5 44.5 92.6 44.2 92.8 44C93 43.8 93.3 43.7 93.6 43.7C93.9 43.7 94.2 43.7 94.4 44C94.6 44.2 94.7 44.5 94.7 44.7C94.7 44.9 94.6 45.2 94.4 45.4C94.2 45.6 93.9 45.7 93.6 45.7C93.3 45.7 93 45.7 92.8 45.4C92.6 45.2 92.5 45 92.5 44.7ZM94.5 55.0999H92.6V46.9H94.5V55.0999Z" fill="white"/>
<path d="M98.4 46.9V47.7999C99 47.0999 99.9 46.7 100.8 46.7C102.5 46.7 103.4 47.7 103.4 49.7V55.2H101.5V49.7999C101.5 49.3999 101.4 49 101.2 48.7C100.9 48.4 100.5 48.2999 100.1 48.2999C99.4 48.2999 98.7 48.6999 98.4 49.2999V55.2H96.5V47H98.3L98.4 46.9Z" fill="white"/>
<path d="M105.2 50.9C105.2 49.6 105.5 48.6 106.1 47.8C106.7 47 107.6 46.6 108.5 46.7C109.4 46.7 110.2 47 110.7 47.7V46.9H112.4V54.9C112.4 55.9 112.1 56.8 111.4 57.5C110.6 58.2 109.7 58.5 108.7 58.4C108.1 58.4 107.5 58.3 106.9 58C106.4 57.8 105.9 57.4 105.6 57L106.5 55.9C107 56.5 107.8 56.9 108.6 56.9C109.1 56.9 109.6 56.8 110.1 56.4C110.5 56 110.7 55.5 110.6 54.9V54.3C110 54.9 109.3 55.2 108.5 55.2C107.6 55.2 106.7 54.8 106.1 54.1C105.5 53.3 105.2 52.3 105.2 50.9ZM107.1 51.1C107.1 51.8 107.2 52.5 107.6 53C107.9 53.5 108.4 53.7 109 53.7C109.7 53.7 110.4 53.4 110.7 52.7V49.1C110.4 48.5 109.7 48.1 109.1 48.2C108.5 48.2 108 48.4 107.7 48.9C107.3 49.6 107.1 50.3 107.1 51.1Z" fill="white"/>
<path d="M44.4001 47.1C39.8001 46.9 37.1001 44 37.0001 39.5C37.0001 34.9 39.8001 32.1 44.4001 31.9C47.4001 31.7 49.6001 29.5 49.5001 26.7C49.4001 24 47.2001 21.8 44.4001 21.7C41.6001 21.7 39.1001 23.8 39.2001 26.7C39.3001 30.2 37.8001 32.3 34.6001 33.5C31.3001 34.7 28.4001 34 25.8001 31.9C24.5001 30.9 24.0001 29.5 24.0001 27.8C24.0001 26.8 23.9001 25.9 23.6001 24.9C22.7001 22.5 20.1001 21.1 17.6001 21.8C14.9001 22.5 13.2001 25.2 13.8001 27.9C14.3001 30.2 16.3001 31.8 18.6001 31.8C21.7001 32 24.2001 33.2 25.6001 36C26.7001 38.1 26.7001 40.7 25.6001 42.8C24.2001 45.6 21.6001 46.8 18.6001 47C15.8001 47.1 13.6001 49.5 13.6001 52.3C13.6001 54.6 15.3001 56.6 17.6001 57.1C20.1001 57.7 22.7001 56.4 23.6001 54C23.9001 53.1 24.0001 52.1 24.0001 51.1C24.0001 49.5 24.5001 48 25.8001 47C28.4001 44.9 31.4001 44.2 34.6001 45.4C37.7001 46.6 39.3001 48.7 39.2001 52.2C39.1001 55.1 41.5001 57.2 44.3001 57.2C47.1001 57.2 49.3001 55 49.4001 52.2C49.4001 49.4 47.3001 47.1 44.3001 47L44.4001 47.1Z" fill="white"/>
<path d="M31.6 47.0999C28.8 47.0999 26.5 49.4999 26.5 52.2999C26.5 55.0999 28.8 57.3999 31.7 57.2999C34.5 57.2999 36.8 54.8999 36.8 52.0999C36.8 49.2999 34.5 46.9999 31.6 47.0999Z" fill="white"/>
<path d="M18.9002 34.3C16.0002 34.3 13.7002 36.6 13.7002 39.5C13.7002 42.4 16.0002 44.6 18.9002 44.6C21.8002 44.6 24.0002 42.3 24.0002 39.5C24.0002 36.6 21.8002 34.3 19.0002 34.3C17.1002 34.3 17.1002 34.3 19.0002 34.3H18.9002Z" fill="white"/>
<path d="M49.5001 39.3C49.4001 36.5 47.1001 34.3 44.2001 34.3C41.3001 34.4 39.1001 36.8001 39.2001 39.7001C39.3001 42.4001 41.5001 44.6001 44.2001 44.7001C47.0001 44.7001 49.3001 42.5 49.5001 39.8V39.3Z" fill="white"/>
<path d="M31.5999 31.8001C34.3999 31.8001 36.6999 29.5001 36.6999 26.7001C36.6999 24.0001 34.4999 21.8001 31.7999 21.7001C28.9999 21.6001 26.5999 23.8001 26.4999 26.6001C26.3999 29.4001 28.5999 31.7001 31.3999 31.8001H31.5999Z" fill="white"/>
</svg>
