<svg width="160" height="80" viewBox="0 0 160 80" fill="none" xmlns="http://www.w3.org/2000/svg">
<path d="M109.4 12.8C109.9 21.2 109.5 29.6 109.6 38C109.6 39.1 109.9 40 111 40.6C111.9 41.1 113.8 40.7 114.4 40.1C114.5 40 114.8 40 114.8 40C115.6 40.9 116.3 41.8 117 42.7C117.2 43 117.2 43.1 116.9 43.3C115.8 44.2 114.6 44.6 113.1 44.8C111 45.1 109.1 44.7 107.3 43.4C106 42.5 105.2 41.2 104.9 39.6C104.7 38.6 104.7 37.6 104.7 36.6C104.7 28.6 104.7 20.7 104.7 12.7C106.2 12.8 107.8 12.8 109.4 12.8Z" fill="white"/>
<path d="M2.7999 43.2C2.7999 42.2 2.7999 41.2 2.7999 40.2C2.7999 40.1 2.6999 40 2.6999 39.9C2.9999 36.3 4.1999 32.9 5.9999 29.7C7.0999 27.9 8.2999 26.2 9.7999 24.8C12.6999 21.9 16.1999 19.8 20.0999 18.6C21.7999 18.1 23.4999 17.7 25.1999 17.6C26.3999 17.6 27.5999 17.4 28.7999 17.5C31.6999 17.7 34.5999 18.3 37.2999 19.4C39.3999 20.3 41.2999 21.4 43.0999 22.8C45.0999 24.3 46.6999 26.2 48.1999 28.2C49.5999 30.2 50.5999 32.3 51.3999 34.6C51.8999 36.3 52.2999 37.9 52.3999 39.7C52.4999 41.1 52.5999 42.4 52.4999 43.8C52.1999 47.7 51.0999 51.4 49.0999 54.8C47.7999 57 46.0999 58.9 44.1999 60.6C42.8999 61.7 41.4999 62.6 40.0999 63.5C38.0999 64.7 35.8999 65.5 33.6999 66.1C32.3999 66.4 31.0999 66.6 29.6999 66.7C28.2999 66.8 26.7999 66.9 25.3999 66.8C23.4999 66.7 21.5999 66.3 19.6999 65.7C16.8999 64.8 14.2999 63.5 11.9999 61.7C7.7999 58.5 4.8999 54.3 3.3999 49.3C2.8999 47.7 2.4999 46.1 2.5999 44.4C2.8999 44 2.7999 43.6 2.7999 43.2ZM27.4999 65.1C28.7999 64.9 30.1999 64.8 31.4999 64.6C33.6999 64.3 35.7999 63.6 37.7999 62.6C40.9999 61 43.6999 58.9 45.8999 56.1C48.4999 52.8 50.0999 49 50.5999 44.8C50.7999 43.2 50.6999 41.6 50.5999 40C50.4999 37.9 49.9999 36 49.2999 34.1C48.0999 30.8 46.0999 28 43.4999 25.5C41.5999 23.7 39.3999 22.4 36.9999 21.3C34.4999 20.2 31.8999 19.6 29.0999 19.4C26.9999 19.3 24.9999 19.4 22.8999 19.8C20.3999 20.4 17.9999 21.2 15.6999 22.6C13.5999 23.8 11.7999 25.3 10.1999 27.1C8.5999 28.8 7.3999 30.7 6.3999 32.9C5.1999 35.6 4.3999 38.5 4.3999 41.5C4.3999 42.4 4.3999 43.4 4.4999 44.3C4.6999 45.7 4.7999 47.1 5.1999 48.4C6.4999 52.8 8.7999 56.5 12.2999 59.4C13.8999 60.7 15.5999 61.8 17.4999 62.7C20.8999 64.3 24.0999 65 27.4999 65.1Z" fill="white"/>
<path d="M152.5 32.7C152.4 31.7 152.5 30.7 152.3 29.8C152.1 28.5 151.2 27.7 149.9 27.3C148.1 26.8 146.3 26.7 144.7 27.7C143.9 28.1 143.3 28.8 142.5 29.4C141.5 28.5 140.4 27.5 139.3 26.5C141 24.5 143.1 23.4 145.6 23.1C147.7 22.8 149.9 22.8 151.9 23.5C154.4 24.4 156.2 26 156.8 28.7C156.9 29.4 157.1 30.1 157.1 30.7C157.2 34.2 157.2 37.7 157.2 41.2C157.2 42.1 157.1 43 157.1 43.9C157.1 44 156.9 44.3 156.7 44.3C155.5 44.3 154.4 44.3 153.2 44.3C153.1 44.3 152.9 44.1 152.8 43.9C152.7 43.3 152.7 42.6 152.6 41.9C152.3 42.1 151.9 42.2 151.6 42.5C150.1 43.6 148.5 44.3 146.7 44.7C144 45.2 141.5 44.6 139.6 42C138.9 41 138.6 39.9 138.6 38.7C138.6 37.3 138.8 36 139.6 34.8C140.7 33.4 142 32.5 143.8 32.3C145.2 32.1 146.6 32.1 148.1 32.2C149 32.2 150 32.5 150.9 32.6C151.5 32.7 152 32.7 152.5 32.7ZM152.5 36.3C151.5 36.2 150.5 36.1 149.6 35.9C148.2 35.7 146.7 35.5 145.3 36C144.4 36.3 143.8 36.9 143.7 37.8C143.6 38.7 143.8 39.6 144.7 40.2C145.9 41.1 147.3 40.8 148.5 40.4C149.7 40 150.8 39.3 152 38.6C152.4 38.4 152.7 38 152.6 37.4C152.4 37.1 152.5 36.7 152.5 36.3Z" fill="white"/>
<path d="M94.1001 32.7C94.0001 31.7 94.0001 30.8 93.9001 29.9C93.8001 28.6 92.9001 27.8 91.8001 27.4C89.5001 26.6 86.8001 26.8 84.8001 28.8C84.7001 28.9 84.6001 29.1 84.4001 29.2C84.3001 29.3 84.0001 29.3 84.0001 29.3C83.0001 28.4 82.0001 27.5 81.0001 26.6C82.4001 24.9 84.1001 23.9 86.2001 23.4C87.8001 23 89.4001 23 90.9001 23.1C93.0001 23.2 95.0001 24 96.5001 25.5C97.6001 26.6 98.4001 27.9 98.5001 29.5C98.6001 30.7 98.7001 31.9 98.7001 33.1C98.7001 36.3 98.7001 39.5 98.7001 42.7C98.7001 43.3 98.7001 43.9 98.7001 44.5C97.3001 44.5 96.1001 44.5 94.8001 44.5C94.7001 44.5 94.4001 44.3 94.4001 44.1C94.3001 43.5 94.3001 42.8 94.2001 42C93.7001 42.3 93.2001 42.6 92.8001 42.9C91.2001 43.9 89.6001 44.6 87.7001 44.8C85.4001 45.1 83.6001 44.4 82.0001 42.9C79.9001 40.7 79.6001 36.9 81.6001 34.6C83.0001 33 84.6001 32.3 86.7001 32.3C87.6001 32.3 88.5001 32.2 89.5001 32.3C90.6001 32.4 91.6001 32.6 92.7001 32.7C93.2001 32.7 93.6001 32.7 94.1001 32.7ZM94.0001 36.3C93.6001 36.2 93.3001 36.2 93.0001 36.2C92.1001 36.1 91.2001 35.9 90.2001 35.8C89.0001 35.7 87.7001 35.6 86.5001 36.1C85.6001 36.5 84.9001 37.7 85.1001 38.6C85.6001 40.6 87.2001 40.9 88.8001 40.7C90.3001 40.5 91.5001 39.8 92.8001 39C93.6001 38.5 94.1001 38 93.9001 36.9C94.0001 36.7 94.0001 36.5 94.0001 36.3Z" fill="white"/>
<path d="M59.3999 41.9C60.0999 40.9 60.7999 39.9 61.5999 38.9C61.6999 38.8 61.9999 38.8 62.0999 38.9C63.2999 40 64.6999 40.4 66.1999 40.8C67.3999 41.1 68.5999 41.2 69.7999 40.9C70.6999 40.7 71.4999 40.4 71.8999 39.5C72.2999 38.6 72.0999 37.5 70.9999 36.9C69.7999 36.3 68.4999 35.9 67.2999 35.4C65.6999 34.8 64.0999 34.4 62.5999 33.4C61.3999 32.6 60.6999 31.5 60.4999 30.1C60.0999 27.2 61.5999 25.4 63.8999 24.1C65.1999 23.4 66.5999 23.1 68.0999 23C70.4999 23 72.7999 23.4 74.9999 24.4C75.4999 24.6 75.9999 24.9 76.4999 25.2C75.5999 26.3 74.7999 27.3 73.8999 28.4C73.4999 28.2 73.1999 27.9 72.7999 27.7C71.7999 27.1 70.7999 26.8 69.5999 26.7C68.5999 26.6 67.6999 26.6 66.7999 27C65.2999 27.6 64.8999 28.7 65.5999 29.6C65.9999 30.1 66.4999 30.6 67.0999 30.8C68.2999 31.3 69.4999 31.7 70.7999 32.1C72.5999 32.6 74.1999 33.3 75.5999 34.5C76.3999 35.2 76.7999 36.1 76.8999 37.1C76.9999 38.6 76.9999 40 76.0999 41.3C75.0999 42.8 73.5999 43.7 71.8999 44.3C70.3999 44.8 68.7999 45 67.2999 44.8C64.7999 44.5 62.2999 44.1 60.1999 42.5C59.9999 42.3 59.6999 42.1 59.3999 41.9Z" fill="white"/>
<path d="M117.8 41.8C118.6 40.7 119.4 39.7 120.2 38.6C121.5 39.9 123.1 40.5 124.8 40.9C126.2 41.2 127.7 41.3 129.1 40.7C129.9 40.4 130.5 39.9 130.6 38.9C130.7 37.9 130.2 37.2 129.3 36.8C127.7 36.1 126 35.6 124.3 35C122.7 34.4 121 33.8 119.9 32.4C119 31.3 118.6 29.9 118.9 28.5C119.5 25.5 121.7 24 124.4 23.3C126.7 22.7 129 23 131.2 23.7C132.2 24 133.1 24.5 134.1 24.9C134.4 25 134.6 25.2 134.8 25.4C134 26.4 133.2 27.3 132.5 28.3C132.3 28.6 132.2 28.6 131.9 28.4C130.7 27.5 129.4 27 127.9 26.8C126.6 26.6 125.5 26.8 124.4 27.5C123.1 28.3 123.5 29.7 124.4 30.4C125.6 31.3 127.1 31.7 128.5 32.1C130.3 32.6 132 33.2 133.5 34.4C134.6 35.2 135.1 36.4 135.2 37.8C135.3 39.2 135.1 40.5 134.2 41.6C133 43.3 131.3 44.3 129.3 44.7C128.1 44.9 126.8 45.1 125.6 45C123.8 44.9 122 44.5 120.4 43.7C119.6 43.2 118.6 42.8 117.8 41.8Z" fill="white"/>
<path d="M139.7 64.7C140.2 64.9 140.6 65.2 141 65.4C142.2 66 143.9 65.8 144.6 64.6C145.1 63.7 145.1 62.8 145 61.7C144.4 62.3 143.7 62.6 142.9 62.8C141.5 63.2 139.6 62.3 138.9 61C137.7 58.9 137.8 56.7 139.4 54.8C140 54.1 140.9 53.7 141.9 53.7C143 53.7 144.1 53.9 144.9 54.7C145 54.8 145.1 54.8 145.2 54.8C145.2 54.7 145.3 54.7 145.3 54.7C145.3 54.4 145.3 53.9 145.4 53.9C145.8 53.8 146.2 53.8 146.6 53.8C146.7 53.8 146.8 54 146.8 54.2C146.8 54.7 146.8 55.2 146.8 55.7C146.8 57.8 146.8 59.8 146.8 61.9C146.8 63.2 146.6 64.5 145.7 65.6C144.9 66.6 142.8 67.5 141.1 66.8C139.5 66.4 139.6 66.5 139.7 64.7ZM145.1 58.5C145 58.1 145.1 57.6 144.9 57.2C144.6 56.1 143.8 55.4 142.7 55.2C141.8 55 140.9 55.3 140.4 56.1C139.5 57.3 139.3 58.6 140 60C140.8 61.5 141.9 61.8 143.4 61.3C144.2 61 145.2 60.1 145.1 58.5Z" fill="white"/>
<path d="M157.2 54.3C157.2 56.5 157.2 58.7 157.2 60.9C157.2 61.9 157.1 63 157 64C156.8 65.9 155.3 66.9 153.7 67.2C152.5 67.4 151.4 67.2 150.3 66.7C149.8 66.5 149.6 66.3 149.6 65.8C149.6 65.5 149.6 65.1 149.6 64.7C150.1 65 150.4 65.2 150.8 65.4C151.8 65.9 152.8 66 153.8 65.7C154.7 65.4 155.3 64.5 155.4 63.3C155.4 62.8 155.4 62.4 155.4 61.8C155.1 62 154.9 62.2 154.7 62.3C152.6 63.8 149.6 62.7 149.2 59.8C149 58.4 149.2 57 149.2 55.7C149.2 55.2 149.2 54.7 149.2 54.1C149.7 54.1 150.3 54.1 150.9 54.1C150.9 55 150.9 56 150.9 56.9C150.9 57.7 151 58.6 150.9 59.4C150.8 60.6 152.2 61.9 153.7 61.4C155 61 155.5 60.1 155.5 59C155.5 57.4 155.5 55.8 155.5 54.1C156.1 54.1 156.6 54.2 157.1 54.2C157.2 54.2 157.2 54.2 157.2 54.3Z" fill="white"/>
<path d="M92 62.8C92 59.7 92 56.7 92 53.7C92 52.5 92 51.3 92 50.2C92 49.7 92.2 49.6 92.6 49.6C92.7 49.6 92.8 49.6 92.9 49.6C93.4 49.5 93.7 49.8 93.6 50.3C93.6 51.6 93.6 53 93.6 54.3C93.6 54.5 93.6 54.6 93.6 54.8C94.1 54.5 94.5 54.2 95 54C96.9 53.3 99.2 54 99.8 56.2C99.9 56.5 99.9 56.8 99.9 57.1C99.9 58.8 99.9 60.6 99.9 62.3C99.9 62.4 99.9 62.5 99.9 62.6C99.4 62.7 98.9 62.7 98.3 62.8C98.3 61.1 98.3 59.4 98.3 57.8C98.3 56.9 98.2 56 97.2 55.5C95.7 54.7 93.7 55.4 93.6 57.2C93.5 58.8 93.6 60.4 93.6 62.1C93.6 62.6 93.5 62.9 92.9 62.8C92.6 62.8 92.3 62.8 92 62.8Z" fill="white"/>
<path d="M75.3001 58.9C75.5001 60.7 76.6001 61.6 78.2001 61.5C79.0001 61.5 79.6001 61.1 80.1001 60.5C80.4001 60.1 80.7001 60 81.1001 60.4C81.6001 60.8 81.6001 61 81.2001 61.4C79.8001 63.1 77.5001 63.2 76.0001 62.4C74.7001 61.7 74.1001 60.6 73.8001 59.2C73.6001 57.9 73.8001 56.7 74.5001 55.6C75.5001 53.9 77.4001 53.5 79.2001 53.9C81.0001 54.3 81.9001 56.1 82.0001 57.7C82.0001 58.1 82.0001 58.4 82.0001 58.8C79.7001 58.9 77.6001 58.9 75.3001 58.9ZM75.5001 57.6C77.2001 57.6 78.9001 57.6 80.6001 57.6C80.3001 55.7 79.0001 55.1 77.6001 55.2C76.3001 55.3 75.4001 56.4 75.5001 57.6Z" fill="white"/>
<path d="M112.2 58.4C112.1 57.2 112.5 56.1 113.3 55.2C114.5 53.8 116.1 53.5 117.8 54C119.6 54.5 120.8 56.5 120.8 58.1C120.8 59.3 120.6 60.4 119.8 61.4C118.8 62.7 116.4 63.4 114.8 62.6C113.4 61.9 112.6 60.9 112.2 59.4C112.2 59.1 112.2 58.7 112.2 58.4ZM113.8 58.3C113.8 58.5 113.9 58.9 113.9 59.3C114.1 60.3 114.8 61 115.8 61.3C116.7 61.6 117.5 61.3 118.2 60.7C119.4 59.6 119.4 58.3 119 56.9C118.5 55.3 116.4 54.6 115 55.6C114.1 56.3 113.9 57.2 113.8 58.3Z" fill="white"/>
<path d="M136.6 58.4C136.8 60.3 135.3 62.2 133.6 62.8C131.2 63.6 128.8 62.1 128.1 59.8C127.6 57.9 128 56.2 129.5 54.8C131.3 53.2 134.5 53.7 135.7 55.5C136.4 56.4 136.7 57.3 136.6 58.4ZM135 58.3C135 58.3 135.1 58.3 135.1 58.2C134.9 57.6 134.8 56.9 134.5 56.3C133.5 54.6 130.8 54.6 129.9 56.5C129.5 57.3 129.4 58.1 129.6 59C130.1 60.9 131.6 61.8 133.4 61.1C134.7 60.7 135.1 59.6 135 58.3Z" fill="white"/>
<path d="M104.1 62.8C103.5 62.8 103 62.8 102.5 62.8C102.5 59.9 102.5 57 102.5 54.1C103 54.1 103.4 54.1 103.9 54.1C104 54.4 104 54.6 104.1 54.9C104.3 54.8 104.5 54.7 104.6 54.6C105.7 53.7 106.8 53.7 108.1 54.1C109.1 54.3 110.3 55.6 110.3 56.9C110.3 58.9 110.3 60.9 110.3 62.9C109.7 62.9 109.3 62.9 108.8 62.9C108.8 62.3 108.8 61.7 108.8 61.1C108.8 59.8 108.8 58.4 108.7 57.1C108.6 56.2 107.9 55.6 107 55.4C105.9 55.2 105.1 55.5 104.5 56.4C104.3 56.6 104.2 56.9 104.2 57.2C104.2 57.8 104.2 58.4 104.2 59C104.1 60.1 104.1 61.5 104.1 62.8Z" fill="white"/>
<path d="M69.4998 51.1C68.1998 51.1 66.9998 51.1 65.7998 51.1C65.7998 50.6 65.7998 50.2 65.7998 49.7C68.7998 49.7 71.7998 49.7 74.7998 49.7C74.7998 50.2 74.7998 50.6 74.7998 51.1C73.5998 51.1 72.3998 51.1 71.1998 51.1C71.1998 51.3 71.1998 51.5 71.1998 51.7C71.1998 55.1 71.1998 58.5 71.1998 61.9C71.1998 62.7 70.3998 63.2 69.6998 62.8C69.5998 62.7 69.5998 62.5 69.5998 62.3C69.5998 58.8 69.5998 55.3 69.5998 51.8C69.4998 51.6 69.4998 51.4 69.4998 51.1Z" fill="white"/>
<path d="M122.9 49.7C123.4 49.7 124 49.7 124.6 49.7C124.6 49.9 124.6 50 124.6 50.2C124.6 53.4 124.6 56.7 124.6 59.9C124.6 60.1 124.6 60.3 124.6 60.5C124.7 61.4 125.3 61.8 126.1 61.4C126.6 61.2 127.4 61.7 127.4 62.3C127.4 62.4 127.3 62.5 127.2 62.6C125.6 63.5 123.5 63.1 123 61.2C122.9 60.7 122.9 60.2 122.9 59.7C122.9 57.1 122.9 54.5 122.9 52C122.9 51.2 122.9 50.5 122.9 49.7Z" fill="white"/>
<path d="M90.0001 55.9C89.3001 55.6 88.7001 55.3 88.0001 55.2C86.3001 55 85.4001 55.9 85.1001 57.4C84.8001 58.5 85.0001 59.6 85.7001 60.6C86.6001 61.8 88.0001 61.8 88.9001 61.4C89.3001 61.2 89.6001 61 90.0001 60.7C90.0001 61.2 90.1001 61.6 90.0001 62C89.9001 62.6 89.3001 62.7 88.8001 62.8C87.2001 63.3 85.8001 62.9 84.6001 61.8C83.9001 61.1 83.6001 60.2 83.5001 59.3C83.3001 57.9 83.5001 56.6 84.4001 55.4C85.3001 54.2 87.0001 53.7 88.3001 53.9C88.6001 54 88.9001 54.1 89.2001 54.1C89.8001 54.2 90.0001 54.6 90.0001 55.2C90.0001 55.5 90.0001 55.7 90.0001 55.9Z" fill="white"/>
<path d="M157.2 54.3C157.2 54.3 157.2 54.2 157.1 54.2C157.2 54.2 157.2 54.2 157.2 54.3Z" fill="white"/>
<path d="M27.3998 63.8C22.7998 63.8 18.6998 62.4 15.0998 59.8C10.9998 56.9 8.09982 53 6.69982 48.2C6.29982 46.9 6.09982 45.6 5.99982 44.3C5.89982 43.1 5.79982 41.9 5.89982 40.7C5.99982 38.4 6.59982 36.1 7.49982 34C8.59982 31.4 10.1998 29 12.1998 27C14.6998 24.6 17.5998 22.8 20.8998 21.7C22.2998 21.2 23.6998 20.8 25.2998 20.8C26.5998 20.8 27.7998 20.6 29.0998 20.7C31.6998 20.9 34.1998 21.4 36.4998 22.5C38.3998 23.4 40.1998 24.5 41.7998 25.8C43.9998 27.6 45.5998 29.7 46.9998 32.1C48.1998 34.2 48.8998 36.4 49.1998 38.7C49.3998 40.3 49.4998 41.9 49.3998 43.5C49.1998 47.3 47.9998 50.8 45.8998 54C43.9998 56.8 41.4998 59.1 38.4998 60.8C36.1998 62.1 33.7998 62.9 31.1998 63.4C29.9998 63.7 28.6998 63.7 27.3998 63.8ZM37.2998 30.1C37.2998 29.4 37.3998 28.7 37.2998 28.1C37.2998 27.7 36.9998 27.4 36.7998 27.1C36.4998 26.8 36.1998 26.6 35.7998 26.4C35.3998 26.2 35.0998 26.1 34.8998 26.7C34.8998 26.8 34.6998 26.9 34.5998 27C33.5998 27.9 32.3998 28.4 31.0998 28.8C28.7998 29.6 26.4998 30.4 24.2998 31.3C22.1998 32.2 20.0998 33.1 18.5998 34.9C17.7998 35.8 17.2998 36.9 17.4998 38.1C17.6998 40.1 18.7998 41.7 20.6998 42.6C21.4998 43 22.2998 43.4 23.1998 43.7C24.9998 44.5 26.7998 45.2 28.6998 46C29.1998 46.2 29.6998 46.5 30.2998 46.8C29.3998 47 28.5998 47.2 27.7998 47.4C25.0998 48.1 22.3998 49.1 20.0998 50.9C18.6998 52 17.4998 53.2 17.5998 55.2C17.6998 56.4 18.7998 57.9 19.9998 58.3C20.1998 58.4 20.4998 58.2 20.5998 58.1C21.1998 57.1 22.1998 56.6 23.1998 56.2C24.2998 55.8 25.4998 55.5 26.5998 55.1C27.9998 54.6 29.3998 54 30.7998 53.5C32.5998 52.9 34.2998 52 35.7998 50.9C36.6998 50.3 37.3998 49.6 37.7998 48.6C38.7998 46.2 37.4998 43.8 35.7998 42.5C35.1998 42.1 34.4998 41.7 33.8998 41.4C32.6998 40.8 31.4998 40.3 30.1998 39.8C28.8998 39.3 27.5998 38.8 26.2998 38.3C26.0998 38.2 25.9998 38.1 25.8998 38C25.9998 37.9 26.0998 37.8 26.1998 37.8C27.0998 37.5 27.8998 37.2 28.7998 36.9C30.9998 36.1 32.9998 35.3 34.8998 33.9C36.0998 33 37.0998 32 37.7998 30.7C37.7998 30.3 37.6998 30.1 37.2998 30.1Z" fill="white"/>
</svg>
